<?xml version="1.0" encoding="utf-8"?><svg xml:space="preserve" viewBox="0 0 100 100" y="0" x="0" xmlns="http://www.w3.org/2000/svg" id="圖層_1" version="1.1" width="200px" height="200px" xmlns:xlink="http://www.w3.org/1999/xlink" style="width:100%;height:100%;background-size:initial;background-repeat:initial;background-position-y:initial;background-position-x:initial;background-origin:initial;background-image:initial;background-color:rgb(241, 242, 243);background-clip:initial;background-attachment:initial;animation-play-state:paused" ><g class="ldl-scale" style="transform-origin:50% 50%;transform:rotate(0deg) scale(0.8, 0.8);animation-play-state:paused" ><path fill="#849b87" d="M80.75 5h-61.5C11.393 5 5 11.393 5 19.25v61.5C5 88.607 11.393 95 19.25 95h61.5C88.607 95 95 88.607 95 80.75v-61.5C95 11.393 88.607 5 80.75 5z" style="fill:rgb(255, 255, 255);animation-play-state:paused" ></path>
<path fill="#fff" d="M69.176 33.86L43.503 59.533l-12.68-12.68a5.001 5.001 0 0 0-7.071 7.071L39.968 70.14c.977.976 2.256 1.464 3.536 1.464s2.559-.488 3.536-1.464l29.208-29.208a5 5 0 0 0 0-7.071 5.002 5.002 0 0 0-7.072-.001z" style="fill:rgb(52, 191, 73);animation-play-state:paused" ></path>
<metadata xmlns:d="https://loading.io/stock/" style="animation-play-state:paused" ><d:name style="animation-play-state:paused" >check</d:name>


<d:tags style="animation-play-state:paused" >square,ok,select,choice,circle,option,enable,on,check,form</d:tags>


<d:license style="animation-play-state:paused" >by</d:license>


<d:slug style="animation-play-state:paused" >eepokc</d:slug></metadata></g><!-- generated by https://loading.io/ --></svg>