<svg width="32" height="32" viewBox="0 0 32 32" fill="none" xmlns="http://www.w3.org/2000/svg">
<path d="M12.9976 2.99744C7.48643 2.99744 3.0011 7.4886 3.0011 12.9998C3.0011 18.511 7.48643 23.0021 12.9976 23.0021C15.3953 23.0021 17.6001 22.1528 19.326 20.7384L27.297 28.7094C27.4844 28.8957 27.7378 29.0003 28.002 29.0003C28.2662 29.0003 28.5197 28.8957 28.7071 28.7094C28.8005 28.6165 28.8748 28.506 28.9254 28.3843C28.9759 28.2626 29.0019 28.1322 29.0019 28.0004C29.0019 27.8686 28.9759 27.7381 28.9254 27.6164C28.8748 27.4948 28.8005 27.3843 28.7071 27.2914L20.7382 19.3223C22.15 17.5973 22.9999 15.3951 22.9999 12.9998C22.9999 7.4886 18.5088 2.99744 12.9976 2.99744ZM12.9976 4.99752C17.4279 4.99752 20.9998 8.56952 20.9998 12.9998C20.9998 17.4301 17.4279 21.002 12.9976 21.0021C8.56734 21.002 5.00305 17.4301 5.00305 12.9998C5.00305 8.56952 8.56734 4.99752 12.9976 4.99752Z" fill="white"/>
</svg>
