<?xml version="1.0" encoding="UTF-8" standalone="no"?>
<!-- Created with Inkscape (http://www.inkscape.org/) -->

<svg
   version="1.1"
   id="svg1452"
   xml:space="preserve"
   width="682.66669"
   height="682.66669"
   viewBox="0 0 682.66669 682.66669"
   xmlns="http://www.w3.org/2000/svg"
   xmlns:svg="http://www.w3.org/2000/svg"><defs
     id="defs1456"><clipPath
       clipPathUnits="userSpaceOnUse"
       id="clipPath1490"><path
         d="M 0,512 H 512 V 0 H 0 Z"
         id="path1488" /></clipPath></defs><g
     id="g1458"
     transform="matrix(1.3333333,0,0,-1.3333333,0,682.66667)"><g
       id="g1460"
       transform="translate(248,132)"><path
         d="M 0,0 H -28"
         style="fill:none;stroke:#000000;stroke-width:40;stroke-linecap:round;stroke-linejoin:round;stroke-miterlimit:10;stroke-dasharray:none;stroke-opacity:1"
         id="path1462" /></g><g
       id="g1464"
       transform="translate(392,259)"><path
         d="M 0,0 H -172"
         style="fill:none;stroke:#000000;stroke-width:40;stroke-linecap:round;stroke-linejoin:round;stroke-miterlimit:10;stroke-dasharray:none;stroke-opacity:1"
         id="path1466" /></g><g
       id="g1468"
       transform="translate(392,379)"><path
         d="M 0,0 H -172"
         style="fill:none;stroke:#000000;stroke-width:40;stroke-linecap:round;stroke-linejoin:round;stroke-miterlimit:10;stroke-dasharray:none;stroke-opacity:1"
         id="path1470" /></g><g
       id="g1472"
       transform="translate(140,132)"><path
         d="M 0,0 H -20"
         style="fill:none;stroke:#000000;stroke-width:40;stroke-linecap:round;stroke-linejoin:round;stroke-miterlimit:10;stroke-dasharray:none;stroke-opacity:1"
         id="path1474" /></g><g
       id="g1476"
       transform="translate(140,259)"><path
         d="M 0,0 H -20"
         style="fill:none;stroke:#000000;stroke-width:40;stroke-linecap:round;stroke-linejoin:round;stroke-miterlimit:10;stroke-dasharray:none;stroke-opacity:1"
         id="path1478" /></g><g
       id="g1480"
       transform="translate(140,379)"><path
         d="M 0,0 H -20"
         style="fill:none;stroke:#000000;stroke-width:40;stroke-linecap:round;stroke-linejoin:round;stroke-miterlimit:10;stroke-dasharray:none;stroke-opacity:1"
         id="path1482" /></g><g
       id="g1484"><g
         id="g1486"
         clip-path="url(#clipPath1490)"><g
           id="g1492"
           transform="translate(398,187)"><path
             d="m 0,0 c -38.66,0 -70,-31.34 -70,-70 0,-38.66 31.34,-70 70,-70 38.66,0 70,31.34 70,70 C 70,-31.34 38.66,0 0,0 Z"
             style="fill:none;stroke:#000000;stroke-width:40;stroke-linecap:round;stroke-linejoin:round;stroke-miterlimit:10;stroke-dasharray:none;stroke-opacity:1"
             id="path1494" /></g><g
           id="g1496"
           transform="translate(449,63)"><path
             d="M 0,0 43,-43"
             style="fill:none;stroke:#000000;stroke-width:40;stroke-linecap:round;stroke-linejoin:round;stroke-miterlimit:10;stroke-dasharray:none;stroke-opacity:1"
             id="path1498" /></g><g
           id="g1500"
           transform="translate(286,20)"><path
             d="m 0,0 h -206 c -33.137,0 -60,26.863 -60,60 v 352 c 0,33.137 26.863,60 60,60 h 352 c 33.137,0 60,-26.863 60,-60 V 214"
             style="fill:none;stroke:#000000;stroke-width:40;stroke-linecap:round;stroke-linejoin:round;stroke-miterlimit:10;stroke-dasharray:none;stroke-opacity:1"
             id="path1502" /></g></g></g></g></svg>
